<?xml version="1.0" encoding="UTF-8" standalone="no"?>
<!-- Created with Inkscape (http://www.inkscape.org/) -->

<svg
   width="255.99998"
   height="127.99999"
   viewBox="0 0 67.733328 33.866664"
   version="1.1"
   id="svg1"
   xml:space="preserve"
   xmlns="http://www.w3.org/2000/svg"
   xmlns:svg="http://www.w3.org/2000/svg"><defs
     id="defs1" /><g
     id="layer1"><g
       id="g5"
       transform="translate(1.0626881)"><g
         transform="matrix(0.11535748,0,0,-0.11535748,-0.36567318,34.236955)"
         id="g3"><g
           transform="translate(178.06,235.01)"
           id="g1"><path
             d="M 0,0 -22.669,-39.264 -45.338,0 h -75.491 L -22.669,-170.02 75.491,0 Z"
             fill="#41b883"
             id="path1" /></g><g
           transform="translate(178.06,235.01)"
           id="g2"><path
             d="M 0,0 -22.669,-39.264 -45.338,0 H -81.565 L -22.669,-102.01 36.227,0 Z"
             fill="#34495e"
             id="path2" /></g></g><path
         id="rect5"
         style="fill:#333333;stroke-width:0.0430207;-inkscape-stroke:none"
         d="m 36.368147,13.464553 v 2.439252 h -6.740952 v 2.059057 h 6.740952 v 2.439252 l 3.296678,-3.468522 z"
         transform="translate(-1.0626881)" /><g
         style="fill:none"
         id="g6"
         transform="matrix(0.21459219,0,0,0.21459219,41.168223,5.4526512)"><path
           d="m 27.5893,91.1365 c -4.8338,-4.4187 -6.245,-13.703 -4.231,-20.4293 3.492,4.2408 8.3305,5.5842 13.3422,6.3425 7.7369,1.1702 15.3353,0.7325 22.5226,-2.8038 0.8222,-0.4049 1.5821,-0.9432 2.4805,-1.4885 0.6744,1.9566 0.8499,3.9318 0.6143,5.9422 -0.5727,4.8961 -3.0093,8.6782 -6.8847,11.5452 -1.5497,1.1468 -3.1895,2.1719 -4.79,3.2531 -4.917,3.3234 -6.2473,7.2201 -4.3997,12.8881 0.0439,0.139 0.0832,0.277 0.1825,0.614 -2.5105,-1.124 -4.3443,-2.76 -5.7416,-4.911 -1.4758,-2.2697 -2.1779,-4.7809 -2.2148,-7.4981 -0.0185,-1.3223 -0.0185,-2.6564 -0.1963,-3.96 -0.4342,-3.1782 -1.9262,-4.6012 -4.7369,-4.6831 -2.8846,-0.0842 -5.1664,1.6991 -5.7715,4.5076 -0.0462,0.2153 -0.1132,0.4283 -0.1802,0.6787 z"
           fill="#17191e"
           id="path1-4" /><path
           d="m 0,69.5866 c 0,0 14.3139,-6.9729 28.6678,-6.9729 L 39.4901,29.1204 c 0.4052,-1.6197 1.5882,-2.7205 2.9238,-2.7205 1.3356,0 2.5186,1.1008 2.9238,2.7205 l 10.8224,33.4933 c 17,0 28.6677,6.9729 28.6677,6.9729 0,0 -24.3133,-66.23427 -24.3608,-66.36716 C 59.7692,1.2612 58.5911,0 57.0029,0 H 27.8274 C 26.2392,0 25.1087,1.2612 24.3634,3.21944 24.3108,3.34983 0,69.5866 0,69.5866 Z"
           fill="#17191e"
           id="path2-8" /></g></g></g></svg>
